<?xml version="1.0" encoding="UTF-8" standalone="no"?>
<!DOCTYPE svg PUBLIC "-//W3C//DTD SVG 1.1//EN"
 "http://www.w3.org/Graphics/SVG/1.1/DTD/svg11.dtd">
<!-- Generated by graphviz version 2.40.1 (20161225.0304)
 -->
<!-- Title: dependencies Pages: 1 -->
<svg width="504pt" height="284pt"
 viewBox="0.00 0.00 504.00 284.00" xmlns="http://www.w3.org/2000/svg" xmlns:xlink="http://www.w3.org/1999/xlink">
<g id="graph0" class="graph" transform="scale(1 1) rotate(0) translate(4 280)">
<title>dependencies</title>
<polygon fill="#ffffff" stroke="transparent" points="-4,4 -4,-280 500,-280 500,4 -4,4"/>
<text text-anchor="start" x="227.0091" y="-42.4" font-family="sans-serif" font-weight="bold" font-size="14.00" fill="#000000">Legend</text>
<polygon fill="#ffffb3" stroke="transparent" points="14,-10 14,-30 34,-30 34,-10 14,-10"/>
<text text-anchor="start" x="37.629" y="-15.4" font-family="sans-serif" font-size="14.00" fill="#000000"> &#160;Declarations</text>
<polygon fill="#8dd3c7" stroke="transparent" points="127,-10 127,-30 147,-30 147,-10 127,-10"/>
<text text-anchor="start" x="150.7251" y="-15.4" font-family="sans-serif" font-size="14.00" fill="#000000"> &#160;Module</text>
<polygon fill="#80b1d3" stroke="transparent" points="213,-10 213,-30 233,-30 233,-10 213,-10"/>
<text text-anchor="start" x="236.7812" y="-15.4" font-family="sans-serif" font-size="14.00" fill="#000000"> &#160;Bootstrap</text>
<polygon fill="#fdb462" stroke="transparent" points="310,-10 310,-30 330,-30 330,-10 310,-10"/>
<text text-anchor="start" x="333.6732" y="-15.4" font-family="sans-serif" font-size="14.00" fill="#000000"> &#160;Providers</text>
<polygon fill="#fb8072" stroke="transparent" points="406,-10 406,-30 426,-30 426,-10 406,-10"/>
<text text-anchor="start" x="429.7258" y="-15.4" font-family="sans-serif" font-size="14.00" fill="#000000"> &#160;Exports</text>
<g id="clust1" class="cluster">
<title>cluster_NgxNeshanModule</title>
<polygon fill="none" stroke="#000000" stroke-dasharray="1,5" points="68.5,-70 68.5,-268 427.5,-268 427.5,-70 68.5,-70"/>
</g>
<g id="clust2" class="cluster">
<title>cluster_NgxNeshanModule_declarations</title>
<polygon fill="none" stroke="#000000" points="79.5,-78 79.5,-130 416.5,-130 416.5,-78 79.5,-78"/>
</g>
<g id="clust6" class="cluster">
<title>cluster_NgxNeshanModule_exports</title>
<polygon fill="none" stroke="#000000" points="76.5,-208 76.5,-260 419.5,-260 419.5,-208 76.5,-208"/>
</g>
<!-- NeshanStaticComponent -->
<g id="node1" class="node">
<title>NeshanStaticComponent</title>
<polygon fill="#ffffb3" stroke="#000000" points="408.1965,-122 252.8035,-122 252.8035,-86 408.1965,-86 408.1965,-122"/>
<text text-anchor="middle" x="330.5" y="-99.8" font-family="Times,serif" font-size="14.00" fill="#000000">NeshanStaticComponent</text>
</g>
<!-- NgxNeshanModule -->
<g id="node3" class="node">
<title>NgxNeshanModule</title>
<polygon fill="#8dd3c7" stroke="#000000" points="224.1373,-187 221.1373,-191 200.1373,-191 197.1373,-187 98.8627,-187 98.8627,-151 224.1373,-151 224.1373,-187"/>
<text text-anchor="middle" x="161.5" y="-164.8" font-family="Times,serif" font-size="14.00" fill="#000000">NgxNeshanModule</text>
</g>
<!-- NeshanStaticComponent&#45;&gt;NgxNeshanModule -->
<g id="edge1" class="edge">
<title>NeshanStaticComponent&#45;&gt;NgxNeshanModule</title>
<path fill="none" stroke="#000000" d="M356.4494,-122.0225C356.4494,-139.3734 356.4494,-163 356.4494,-163 356.4494,-163 234.2563,-163 234.2563,-163"/>
<polygon fill="#000000" stroke="#000000" points="234.2563,-159.5001 224.2563,-163 234.2563,-166.5001 234.2563,-159.5001"/>
</g>
<!-- NgxNeshanComponent -->
<g id="node2" class="node">
<title>NgxNeshanComponent</title>
<polygon fill="#ffffb3" stroke="#000000" points="235.42,-122 87.58,-122 87.58,-86 235.42,-86 235.42,-122"/>
<text text-anchor="middle" x="161.5" y="-99.8" font-family="Times,serif" font-size="14.00" fill="#000000">NgxNeshanComponent</text>
</g>
<!-- NgxNeshanComponent&#45;&gt;NgxNeshanModule -->
<g id="edge2" class="edge">
<title>NgxNeshanComponent&#45;&gt;NgxNeshanModule</title>
<path fill="none" stroke="#000000" d="M161.5,-122.1061C161.5,-122.1061 161.5,-140.991 161.5,-140.991"/>
<polygon fill="#000000" stroke="#000000" points="158.0001,-140.9909 161.5,-150.991 165.0001,-140.991 158.0001,-140.9909"/>
</g>
<!-- NeshanStaticComponent  -->
<g id="node4" class="node">
<title>NeshanStaticComponent </title>
<polygon fill="#fb8072" stroke="#000000" points="411.6967,-252 253.3033,-252 253.3033,-216 411.6967,-216 411.6967,-252"/>
<text text-anchor="middle" x="332.5" y="-229.8" font-family="Times,serif" font-size="14.00" fill="#000000">NeshanStaticComponent </text>
</g>
<!-- NgxNeshanModule&#45;&gt;NeshanStaticComponent  -->
<g id="edge3" class="edge">
<title>NgxNeshanModule&#45;&gt;NeshanStaticComponent </title>
<path fill="none" stroke="#000000" stroke-dasharray="5,2" d="M224.3537,-175C262.8568,-175 304.8006,-175 304.8006,-175 304.8006,-175 304.8006,-205.9775 304.8006,-205.9775"/>
<polygon fill="#000000" stroke="#000000" points="301.3007,-205.9774 304.8006,-215.9775 308.3007,-205.9775 301.3007,-205.9774"/>
</g>
<!-- NgxNeshanComponent  -->
<g id="node5" class="node">
<title>NgxNeshanComponent </title>
<polygon fill="#fb8072" stroke="#000000" points="234.9194,-252 84.0806,-252 84.0806,-216 234.9194,-216 234.9194,-252"/>
<text text-anchor="middle" x="159.5" y="-229.8" font-family="Times,serif" font-size="14.00" fill="#000000">NgxNeshanComponent </text>
</g>
<!-- NgxNeshanModule&#45;&gt;NgxNeshanComponent  -->
<g id="edge4" class="edge">
<title>NgxNeshanModule&#45;&gt;NgxNeshanComponent </title>
<path fill="none" stroke="#000000" stroke-dasharray="5,2" d="M161.5,-187.1061C161.5,-187.1061 161.5,-205.991 161.5,-205.991"/>
<polygon fill="#000000" stroke="#000000" points="158.0001,-205.9909 161.5,-215.991 165.0001,-205.991 158.0001,-205.9909"/>
</g>
</g>
</svg>
